<?xml version="1.0" standalone="no"?>
<!DOCTYPE svg PUBLIC "-//W3C//DTD SVG 20010904//EN"
 "http://www.w3.org/TR/2001/REC-SVG-20010904/DTD/svg10.dtd">
<svg version="1.0" xmlns="http://www.w3.org/2000/svg"
 width="2000.000000pt" height="2000.000000pt" viewBox="0 0 2000.000000 2000.000000"
 preserveAspectRatio="xMidYMid meet">
<metadata>
Created by potrace 1.14, written by Peter Selinger 2001-2017
</metadata>
<g transform="translate(0.000000,2000.000000) scale(0.100000,-0.100000)"
fill="#000000" stroke="none">
<path d="M9698 16755 c-2 -1 -57 -6 -123 -9 -66 -4 -136 -9 -155 -11 -19 -2
-62 -6 -95 -9 -58 -5 -108 -11 -190 -22 -22 -2 -58 -7 -80 -10 -51 -7 -90 -13
-245 -39 -52 -9 -122 -22 -155 -30 -33 -7 -76 -16 -96 -19 -53 -8 -377 -92
-494 -127 -383 -117 -685 -236 -1040 -410 -201 -98 -333 -169 -495 -266 -114
-69 -352 -224 -416 -272 -12 -9 -32 -23 -44 -31 -110 -74 -415 -315 -531 -420
-239 -216 -441 -418 -609 -609 -36 -41 -70 -79 -75 -85 -6 -6 -38 -45 -70 -86
-33 -41 -63 -77 -66 -80 -21 -17 -244 -323 -336 -461 -243 -364 -453 -750
-603 -1109 -28 -69 -58 -138 -64 -155 -7 -16 -19 -46 -26 -65 -7 -19 -18 -48
-25 -65 -31 -71 -161 -476 -191 -595 -29 -115 -65 -259 -68 -275 -2 -11 -13
-64 -25 -118 -12 -54 -24 -114 -27 -135 -3 -20 -7 -44 -9 -52 -3 -8 -7 -33
-10 -55 -3 -22 -8 -51 -10 -65 -11 -58 -32 -212 -39 -287 -4 -29 -8 -74 -11
-100 -36 -324 -41 -981 -11 -1263 3 -19 7 -67 11 -107 3 -39 8 -82 10 -95 2
-13 9 -66 15 -118 6 -52 15 -117 20 -145 5 -27 11 -66 14 -86 22 -156 109
-533 172 -751 147 -505 365 -1021 613 -1452 28 -49 51 -93 51 -97 0 -5 5 -9
10 -9 6 0 10 -4 10 -10 0 -11 130 -219 219 -350 68 -101 277 -385 302 -410 8
-8 32 -38 54 -65 21 -28 42 -52 45 -55 3 -3 27 -32 55 -65 128 -154 361 -397
551 -572 101 -93 112 -103 198 -176 27 -23 54 -47 60 -52 23 -22 205 -164 281
-221 44 -32 82 -61 85 -64 3 -3 41 -30 85 -60 44 -30 100 -68 125 -85 82 -56
290 -185 300 -185 6 0 10 -4 10 -10 0 -5 4 -10 10 -10 5 0 33 -14 62 -32 223
-133 688 -356 913 -438 28 -10 88 -33 135 -50 218 -82 622 -202 803 -239 263
-55 391 -79 512 -96 22 -4 51 -8 65 -10 14 -3 50 -7 80 -11 30 -3 65 -7 78 -9
12 -2 57 -7 100 -10 42 -4 93 -9 112 -11 251 -26 905 -26 1155 1 22 2 67 7
100 10 107 10 320 38 383 49 9 2 51 9 92 16 41 6 91 15 110 20 19 5 52 11 72
14 20 3 85 17 143 31 58 13 116 27 128 29 155 29 732 214 892 286 11 5 76 32
143 60 231 95 539 251 800 404 220 130 549 356 747 515 74 59 259 214 287 240
9 9 56 52 104 96 191 175 464 460 600 630 27 33 57 69 67 80 73 79 361 482
491 689 151 238 354 628 474 911 119 278 245 641 308 885 34 133 75 303 80
330 3 19 12 62 19 95 8 33 17 76 20 95 3 19 10 58 15 85 5 28 12 70 15 95 3
25 8 52 10 60 2 8 7 38 10 65 3 28 7 64 10 80 3 17 7 53 10 80 3 28 7 70 10
95 36 331 42 1006 11 1265 -2 17 -7 66 -11 109 -4 43 -8 87 -10 97 -2 10 -6
46 -10 81 -3 35 -8 70 -10 78 -2 8 -6 37 -10 64 -3 27 -15 99 -25 160 -20 114
-22 122 -41 216 -14 69 -87 375 -99 415 -6 17 -24 77 -41 135 -68 228 -172
523 -243 685 -8 17 -33 75 -57 130 -48 112 -196 411 -245 495 -17 30 -40 71
-51 90 -17 31 -78 135 -136 230 -60 100 -232 351 -320 470 -94 126 -222 289
-236 300 -4 3 -19 21 -35 40 -130 161 -396 437 -586 610 -51 47 -101 92 -110
100 -15 15 -251 211 -280 233 -8 7 -60 46 -115 87 -55 41 -102 77 -105 80 -17
17 -346 235 -440 292 -196 118 -269 159 -455 253 -182 92 -423 205 -438 205
-4 0 -30 11 -59 24 -93 42 -533 203 -533 195 0 -1 -38 10 -85 24 -113 35 -317
90 -327 88 -2 0 -24 6 -50 14 -27 8 -59 16 -73 19 -14 3 -81 16 -150 30 -133
27 -332 61 -415 71 -27 3 -57 8 -65 10 -13 3 -61 9 -185 20 -108 10 -168 16
-225 21 -68 6 -756 14 -762 9z"/>
</g>
</svg>
